<?xml version="1.0" encoding="utf-8"?>
<svg version="1.1" id="Layer_1" xmlns="http://www.w3.org/2000/svg" xmlns:xlink="http://www.w3.org/1999/xlink" x="0px" y="0px"
	 viewBox="-49 141 512 512" style="enable-background:new -49 141 512 512;" xml:space="preserve">
<style type="text/css">
	.circle{fill:beige;stroke:cadetblue;stroke-width:40;};
	.footer{stroke:brown;stroke-width:40;}
</style>
<path class="circle" d="M162.2,480.9c4.1,3,14.7,18.9,23.2,35c1.5,2.9,4.5,4.6,7.7,4.6c0.2,0,0.3,0,0.4,0c3.3-0.2,6.4-2.3,7.6-5.4
	c6.5-15.7,15.3-31.6,19.1-34.6c75-14.3,129.4-80,129.4-156.6c0-87.8-71.5-159.4-159.4-159.4S30.8,236.1,30.8,323.9
	c0,37.8,13.5,74.5,38,103.3C92.8,455.4,125.9,474.5,162.2,480.9z"/>
<path class="footer" d="M260.5,536.3c-4.4-1-8.8,1.8-9.7,6.2c-1,4.4,1.8,8.8,6.2,9.7c31.7,7.1,46.1,18,46.1,25.1
	c0,4.9-7.5,13.1-28.8,20.3c-21.3,7.2-49.8,11.2-80.2,11.2c-30.4,0-58.9-4-80.2-11.2c-21.2-7.2-28.8-15.4-28.8-20.3
	c0-6.5,12.9-16.8,41.3-23.9c4.4-1.1,7-5.5,5.9-9.9c-1.1-4.4-5.5-7-9.9-5.9c-34.6,8.6-53.6,22.8-53.6,39.7c0,10.1,6.9,24.6,39.9,35.7
	c22.9,7.8,53.3,12,85.5,12c32.2,0,62.5-4.3,85.4-12c32.9-11.1,39.9-25.6,39.9-35.7C319.4,559.3,298.5,544.8,260.5,536.3z"/>
</svg>
